# xmcd CD database file
# Copyright (C) 1993-1996 Ti Kan
#
# Track frame offsets:
# 150
# 12650
# 24850
# 37325
# 47050
# 59200
# 72650
# 86150
# 98822
# 110675
# 122575
# 134225
# 144125
# 155525
# 167600
# 179675
# 194775
# 207525
# 218550
# 232325
# 244550
# 254600
# 267035
# 279410
# 288950
# 298907
# 311425
# 321125
# 333750
#
# Disc length: 4599 seconds
#
# Revision: 0
# Processed by: cddbd v1.4b41PL1 Copyright (c) Steve Scherf et al.
# Submitted via: inCDius 1.1b5
#
DISCID=d411f51d
DTITLE=Ernest Tubb - The Yellow Rose Of Texas - Disc 5 
DYEAR=1900
DGENRE=
TTITLE0=White Silver Sands
TTITLE1=Am I That Easy To Forget
TTITLE2=Everybody's Somebody's Fool
TTITLE3=Let The Little Girl Dance
TTITLE4=Candy Kisses
TTITLE5=It Happened When I Really Needed You
TTITLE6=Wondering
TTITLE7=Cold, Cold Heart
TTITLE8=Four Walls 
TTITLE9=Bouquet Of Roses
TTITLE10=Crazy Arms
TTITLE11=I Love You So Much It Hurts
TTITLE12=I Walk The Line
TTITLE13=Little Ole Band Of Gold
TTITLE14=Wabash Cannonball
TTITLE15=I'm Movin' On
TTITLE16=Tennessee Saturday Night
TTITLE17=Signed, Sealed And Delivered
TTITLE18=Thoughts Of A Fool
TTITLE19=Girl From Abilene
TTITLE20=The Same Thing As Me
TTITLE21=Christmas Is Just Another Day
TTITLE22=I Hate To See You Go
TTITLE23=I'm Sorry Now
TTITLE24=What Will You Tell Them
TTITLE25=It Is No Secret
TTITLE26=Don't Just Stand There
TTITLE27=Big Blue Diamonds
TTITLE28=I'll Just Have Another Cup Of Coffee
EXTD=
EXTT0=
EXTT1=
EXTT2=
EXTT3=
EXTT4=
EXTT5=
EXTT6=
EXTT7=
EXTT8=
EXTT9=
EXTT10=
EXTT11=
EXTT12=
EXTT13=
EXTT14=
EXTT15=
EXTT16=
EXTT17=
EXTT18=
EXTT19=
EXTT20=
EXTT21=
EXTT22=
EXTT23=
EXTT24=
EXTT25=
EXTT26=
EXTT27=
EXTT28=
PLAYORDER=
